<svg aria-hidden="true" style="position:absolute;width:0;height:0;overflow:hidden" xmlns="http://www.w3.org/2000/svg"><defs><symbol id="icon-client-1" viewBox="0 0 59 32"><path fill="#afb1b8" style="fill:var(--color1, #afb1b8)" d="m24.348 8 2.438 2.307-4.525-.003V21.5h11.826v-4.281l2.435 2.305V7.999H24.348zm9.632 8.949-6.911-6.543h6.911v6.543zm-2.146 2.914h-7.702v-7.529h.544v7.019h7.158v.51zm-5.883 3.128-.285.586-.285-.586h-.239l.415.781v.455h.216v-.455l.415-.781h-.238zm.358 1.237.1-.288h.479l.101.288h.224l-.468-1.237h-.193l-.467 1.237h.223zm.339-.974.179.513h-.358l.179-.513zm1.133.483a.28.28 0 0 0-.047.155v.002c0 .104.037.189.11.254s.171.097.294.097a.513.513 0 0 0 .316-.099l.07.082h.239l-.182-.215a.618.618 0 0 0 .107-.374h-.179a.494.494 0 0 1-.051.226l-.239-.282.084-.061a.48.48 0 0 0 .127-.127l.001-.002a.276.276 0 0 0 .039-.141v-.007a.254.254 0 0 0-.086-.191.309.309 0 0 0-.209-.08h-.013.001c-.099 0-.179.029-.238.085s-.088.133-.088.23c0 .04.009.081.028.123a.777.777 0 0 0 .101.154.745.745 0 0 0-.184.17zm.558.273a.316.316 0 0 1-.195.07h-.01a.185.185 0 0 1-.193-.186v-.007c0-.066.034-.125.102-.177l.026-.019.27.319zm-.221-.547c-.058-.072-.088-.131-.088-.179 0-.041.012-.075.036-.103a.122.122 0 0 1 .091-.041H28.166c.034 0 .065.013.088.035a.11.11 0 0 1 .037.082v.004c0 .046-.02.087-.052.115l-.026.022-.094.064zm2.012.671a.445.445 0 0 0 .146-.309h-.214c-.011.088-.038.151-.081.189s-.106.057-.19.057a.242.242 0 0 1-.211-.105.55.55 0 0 1-.071-.306v-.109c.001-.132.027-.232.077-.3s.122-.103.216-.103c.08 0 .141.02.183.059s.068.103.078.192h.214c-.014-.135-.062-.24-.145-.314s-.193-.111-.329-.111a.47.47 0 0 0-.444.274l-.001.003a.723.723 0 0 0-.062.294v.015-.001.115c.002.114.023.214.064.3s.099.152.173.199a.48.48 0 0 0 .261.07.503.503 0 0 0 .339-.11zm1.263-.173a.757.757 0 0 0 .063-.319v-.082a.753.753 0 0 0-.066-.308l.002.005a.478.478 0 0 0-.179-.208l-.002-.001c-.078-.049-.167-.073-.268-.073s-.19.024-.268.074a.482.482 0 0 0-.181.211.751.751 0 0 0-.064.304v.016-.001.07c.001.118.022.223.064.313s.104.161.182.21a.497.497 0 0 0 .268.073c.102 0 .191-.024.269-.073s.138-.12.18-.211zm-.23-.699a.539.539 0 0 1 .078.315v.064c0 .139-.026.245-.077.318s-.124.109-.219.109h-.009a.256.256 0 0 1-.211-.111l-.001-.001a.535.535 0 0 1-.079-.315v-.071a.528.528 0 0 1 .08-.308.255.255 0 0 1 .209-.11h.01c.095 0 .168.037.22.11z"/></symbol><symbol id="icon-client-2" viewBox="0 0 59 32"><path fill="#afb1b8" style="fill:var(--color1, #afb1b8)" d="M28.561 7.629h-.048a9.542 9.542 0 0 0-.214-.008h-.163c-.138 0-.279.003-.419.01l-.016-.001-.017.001h.001a9.786 9.786 0 0 0-3.716.959l.059-.026-.151.072v7.702l.352-.12c.309-.106.638-.202.978-.29.841-.225 1.81-.361 2.808-.374h.008v1.012a8.944 8.944 0 0 0-.37.01h-.029c-.791.044-1.531.163-2.245.35l.078-.017c-.98.249-1.839.594-2.638 1.035l.057-.029V8.038c.78-.463 1.681-.841 2.636-1.086l.072-.016a10.114 10.114 0 0 1 2.55-.329h.151c.178.005.351.013.514.025.429.03.854.098 1.271.202v.996a7.441 7.441 0 0 0-1.206-.184l-.026-.002-.025-.002a3.005 3.005 0 0 0-.249-.015h-.003zm1.753 1.018c.221.017.449.025.681.025a10.987 10.987 0 0 0 2.759-.361l-.076.017a11.03 11.03 0 0 0 2.637-1.035l-.057.029v9.701c-.78.463-1.681.841-2.636 1.086l-.072.016c-.765.205-1.644.325-2.55.328h-.065a7.796 7.796 0 0 1-1.927-.24l.054.012V8.461a8.131 8.131 0 0 0 1.252.188zm4.937.075-.352.119c-.323.109-.65.206-.978.293-.876.235-1.883.371-2.922.375h-.002c-.23 0-.441-.006-.645-.019l-.281-.018v7.922l.241.021c.223.02.454.03.686.03a9.368 9.368 0 0 0 2.368-.313l-.065.015a9.607 9.607 0 0 0 1.857-.672l-.057.025.151-.072V8.724zM23.561 21.291a.516.516 0 0 0-.373-.159h-.019.001-.008a.582.582 0 0 0-.222.044l.004-.001a.512.512 0 0 0-.288.289l-.001.003a.565.565 0 0 0-.04.218v1.32a.633.633 0 0 0 .052.271.523.523 0 0 0 .132.177.462.462 0 0 0 .181.094.731.731 0 0 0 .197.027.558.558 0 0 0 .547-.556v-.148h-.345v.126a.301.301 0 0 1-.021.112l.001-.002a.215.215 0 0 1-.05.074.235.235 0 0 1-.144.05l-.02.001a.173.173 0 0 1-.141-.072.31.31 0 0 1-.046-.163v-.014.001-1.231a.432.432 0 0 1 .042-.197.176.176 0 0 1 .169-.08h-.001.007c.06 0 .114.029.147.074a.278.278 0 0 1 .057.17v.122h.342V21.7a.602.602 0 0 0-.044-.229l.001.004a.538.538 0 0 0-.116-.186zm2.049-.014a.605.605 0 0 0-.598-.108.547.547 0 0 0-.315.289l-.001.003a.606.606 0 0 0-.05.256v1.265a.623.623 0 0 0 .05.259.516.516 0 0 0 .134.177.534.534 0 0 0 .182.111.594.594 0 0 0 .599-.112l-.001.001a.542.542 0 0 0 .18-.436v-1.278a.597.597 0 0 0-.052-.247l.002.004a.572.572 0 0 0-.13-.185zm-.161 1.705a.232.232 0 0 1-.068.183.252.252 0 0 1-.325 0 .224.224 0 0 1-.069-.163l.001-.021v.001-1.266l-.001-.02c0-.064.027-.122.069-.163a.252.252 0 0 1 .325 0 .224.224 0 0 1 .069.163l-.001.021v-.001 1.266zm2.853.566v-2.397h-.331l-.436 1.269h-.006l-.439-1.268h-.328v2.396h.342v-1.457h.006l.335 1.03h.171l.338-1.03h.006v1.457h.342zm1.944-2.228a.481.481 0 0 0-.193-.131.733.733 0 0 0-.235-.037h-.522v2.397h.341v-.936h.176a.629.629 0 0 0 .308-.065.497.497 0 0 0 .186-.181l.001-.002a.582.582 0 0 0 .078-.209c.012-.075.019-.162.019-.251v-.023.001a1.403 1.403 0 0 0-.033-.342.513.513 0 0 0-.126-.22zm-.176.73a.318.318 0 0 1-.032.127l.001-.002a.189.189 0 0 1-.087.083h-.001a.349.349 0 0 1-.143.031h-.019.001-.156v-.815h.192a.33.33 0 0 1 .14.031l-.002-.001a.19.19 0 0 1 .079.087v.001a.344.344 0 0 1 .03.134v.159c0 .056.003.113 0 .165h-.003zm1.794-.899h-.28l-.528 2.397h.342l.1-.515h.465l.101.515h.341l-.541-2.397zm-.315 1.555.168-.869h.006l.167.869h-.341zm2.521-.111h-.006l-.515-1.443h-.328v2.397h.341v-1.441h.007l.522 1.441h.321v-2.396h-.341v1.443zm2.086-1.444-.275.953h-.007l-.274-.953h-.362l.469 1.384v1.013h.342v-1.013l.469-1.383h-.361zm-13.547 3.073h.165v.462h.112v-.462h.163v-.095h-.44v.095zm1.383-.095-.216.557h.119l.046-.127h.222l.047.127h.122l-.221-.557h-.119zm-.017.337.075-.206.075.206h-.151zm1.384.015h.129v.072a.21.21 0 0 1-.132.047h-.008a.14.14 0 0 1-.11-.053.23.23 0 0 1-.041-.133v-.013.001c0-.124.054-.186.16-.186l.012-.001c.055 0 .101.038.114.088v.001l.11-.021c-.024-.109-.102-.163-.236-.163h-.008a.278.278 0 0 0-.187.072.27.27 0 0 0-.08.215v-.001.013a.3.3 0 0 0 .072.196.268.268 0 0 0 .194.082l.018-.001h-.001.009a.336.336 0 0 0 .227-.089v-.219h-.241v.094zm1.397-.352h-.113v.557h.39v-.095h-.277v-.462zm1.18 0h-.112v.557h.112v-.557zm1.155.372-.228-.371h-.109v.557h.104v-.363l.224.363h.112v-.557h-.103v.372zm1.044-.06h.277v-.095h-.277v-.122h.298v-.095h-.411v.557h.422v-.095h-.31v-.151zm2.53-.092h-.219v-.219h-.111v.556h.111v-.243h.219v.243h.112v-.557h-.112v.219zm1.05.092h.278v-.095h-.278v-.122h.299v-.095h-.41v.557h.422v-.095h-.31v-.151zm1.423 0c.097-.015.146-.066.146-.155l.001-.016a.133.133 0 0 0-.055-.107.312.312 0 0 0-.141-.033l-.023.001h.001-.236v.556h.112v-.233h.031a.16.16 0 0 1 .062.013h-.001a.12.12 0 0 1 .04.041l.121.177h.134l-.068-.109a.4.4 0 0 0-.122-.133l-.001-.001zm-.112-.077h-.082v-.139h.088l.024-.001c.032 0 .063.005.092.015l-.002-.001a.074.074 0 0 1 .024.055.077.077 0 0 1-.008.034.061.061 0 0 1-.021.024.307.307 0 0 1-.093.014l-.022-.001h.001zm1.186.077h.277v-.095h-.277v-.122h.299v-.095h-.412v.557h.422v-.095h-.31v-.151z"/></symbol><symbol id="icon-client-3" viewBox="0 0 59 32"><path fill="#afb1b8" style="fill:var(--color1, #afb1b8)" d="M23.793 22.644c.006 0 .011.001.016.003l.014.008.076.072a.621.621 0 0 1-.214.138.823.823 0 0 1-.283.05h-.021.001a.802.802 0 0 1-.284-.046.592.592 0 0 1-.352-.327l-.001-.004a.653.653 0 0 1-.049-.251V22.266c0-.177.077-.336.199-.446h.001a.692.692 0 0 1 .227-.131.907.907 0 0 1 .293-.046h.018c.091 0 .178.015.259.044l-.006-.002a.748.748 0 0 1 .204.117l-.064.077a.07.07 0 0 1-.016.014.04.04 0 0 1-.022.006h-.003a.054.054 0 0 1-.028-.008l-.034-.021-.048-.026a.554.554 0 0 0-.146-.046h-.003a.69.69 0 0 0-.105-.008h-.016a.623.623 0 0 0-.208.036l.004-.001a.454.454 0 0 0-.273.253.507.507 0 0 0-.039.198v.015c0 .072.014.141.04.204l-.001-.004a.454.454 0 0 0 .105.154.422.422 0 0 0 .158.096.559.559 0 0 0 .195.033.892.892 0 0 0 .116-.007.457.457 0 0 0 .251-.107l-.001.001a.057.057 0 0 1 .036-.013zm2.191-.364v.008a.63.63 0 0 1-.053.253l.002-.004a.552.552 0 0 1-.142.198h-.001a.665.665 0 0 1-.22.129l-.005.001a.91.91 0 0 1-.583-.002l.006.002a.66.66 0 0 1-.223-.131l.001.001a.58.58 0 0 1-.143-.197l-.001-.004a.665.665 0 0 1 .002-.518l-.002.004a.59.59 0 0 1 .144-.202.652.652 0 0 1 .223-.126.904.904 0 0 1 .583.002l-.006-.002c.084.03.16.074.224.131s.111.125.143.199c.035.083.053.17.051.258zm-.199 0v-.011a.53.53 0 0 0-.038-.199l.001.004a.424.424 0 0 0-.259-.25l-.003-.001a.67.67 0 0 0-.424.001l.005-.001a.425.425 0 0 0-.263.249l-.001.003a.59.59 0 0 0 .002.416l-.001-.004c.046.119.141.21.26.25l.003.001a.682.682 0 0 0 .419 0 .447.447 0 0 0 .16-.096.432.432 0 0 0 .102-.154.54.54 0 0 0 .036-.206zm1.694.216.02.046.022-.046a.342.342 0 0 1 .026-.047l-.001.002.485-.766c.01-.013.018-.022.028-.024s.021-.004.033-.004h.15v1.245h-.17v-.954l-.001-.022.001-.023v.001l-.488.776a.069.069 0 0 1-.028.028.08.08 0 0 1-.041.01h-.029a.081.081 0 0 1-.041-.011.069.069 0 0 1-.028-.028l-.502-.781v.999h-.164v-1.242h.15c.012 0 .023.002.034.005h-.001a.051.051 0 0 1 .026.024l.495.766a.252.252 0 0 1 .024.043l.001.002zm1.823-.062v.466h-.189v-1.243h.423a.934.934 0 0 1 .236.027.474.474 0 0 1 .167.078c.04.032.073.073.094.12l.001.002a.368.368 0 0 1 .032.159v.008a.345.345 0 0 1-.137.275l-.001.001a.496.496 0 0 1-.168.082.795.795 0 0 1-.213.029h-.016l-.229-.003zm0-.134h.23a.52.52 0 0 0 .147-.019.317.317 0 0 0 .107-.054l-.001.001a.239.239 0 0 0 .087-.184v-.016a.204.204 0 0 0-.02-.089l.001.001a.241.241 0 0 0-.066-.085.399.399 0 0 0-.225-.068l-.031.001h.001-.23v.512zm2.549.602h-.153a.067.067 0 0 1-.039-.012.075.075 0 0 1-.025-.028l-.129-.301h-.648l-.134.301a.071.071 0 0 1-.064.04h-.152l.569-1.245h.197l.577 1.245zm-.939-.463h.535l-.225-.507a.963.963 0 0 1-.043-.117l-.022.065a.586.586 0 0 1-.021.053l-.224.506zm1.759-.776a.076.076 0 0 1 .028.022l.83.939v-.967h.17v1.245h-.097a.09.09 0 0 1-.037-.008h.001a.12.12 0 0 1-.031-.023l-.829-.938.001.021-.001.022v-.001.925h-.17v-1.245h.101c.011 0 .023.002.034.006zm2.426.744v.494h-.19v-.494l-.525-.75H34.556c.014 0 .026.004.037.011.01.008.019.018.026.028l.328.484c.013.021.025.04.034.058s.017.035.024.053l.024-.054a.545.545 0 0 1 .032-.057l.323-.487a.12.12 0 0 1 .024-.026.059.059 0 0 1 .037-.012H35.62l-.525.753zm-7.712-2.84c.083.009.166.016.25.023 1.28-.497 2.362-1.311 3.112-2.34s1.134-2.227 1.105-3.445l-1.41-1.225c.287 1.296.152 2.637-.387 3.871s-1.464 2.313-2.67 3.117z"/><path fill="#afb1b8" style="fill:var(--color1, #afb1b8)" d="m26.881 19.51.038.007c1.288-.801 2.271-1.919 2.819-3.21s.64-2.695.261-4.031l-2.009-1.745c.812 1.434 1.139 3.04.943 4.63s-.908 3.098-2.052 4.35zm6.812-4.266c-.341 1.338-1.17 2.544-2.363 3.441a7.363 7.363 0 0 1-1.081.68l-.042.02c.972-.248 1.865-.687 2.61-1.282s1.324-1.332 1.69-2.152l-.815-.707z"/><path fill="#afb1b8" style="fill:var(--color1, #afb1b8)" d="m33.374 15.047-1.16-1.008c-.022 1.149-.398 2.272-1.089 3.251s-1.671 1.782-2.838 2.321h.006c.26 0 .52-.014.778-.04 1.091-.387 2.055-1.003 2.806-1.792s1.265-1.728 1.497-2.732zm-6.325-5.252-1.384-1.203c-1.237.415-2.301 1.145-3.052 2.095s-1.155 2.074-1.159 3.226c.005 1.273.498 2.509 1.402 3.511s2.166 1.714 3.587 2.022c1.269-1.343 2.012-3.003 2.121-4.738s-.422-3.456-1.515-4.911zm9.521 5.067c-.005-1.51-.698-2.958-1.927-4.026s-2.895-1.67-4.634-1.674h-.015c-.835 0-1.638.139-2.386.395l.052-.015 8.471 7.361a4.92 4.92 0 0 0 .438-2.04z"/></symbol><symbol id="icon-client-4" viewBox="0 0 59 32"><path fill="#afb1b8" style="fill:var(--color1, #afb1b8)" d="M19.529 12.905h-.001c-.834 0-1.51.601-1.51 1.342v.001c0 .741.676 1.342 1.51 1.342h.001c.834 0 1.51-.601 1.51-1.342v-.001c0-.742-.676-1.343-1.51-1.343zm11.148-.428c-.002-1.03-.464-2.017-1.283-2.745s-1.929-1.138-3.088-1.141c-1.159.002-2.27.412-3.089 1.14s-1.281 1.715-1.283 2.745v5.678s8.742-.865 8.743-5.677v-.001zm-15.72 7.54c.002.717.323 1.403.893 1.91s1.342.792 2.148.794c.806-.002 1.578-.288 2.148-.794s.891-1.193.893-1.909v-3.951s-6.083.603-6.083 3.95zm3.041.708a.864.864 0 0 1-.442-.119.738.738 0 0 1-.291-.313l-.002-.004a.626.626 0 0 1-.044-.413l-.001.004c.031-.137.106-.264.218-.362A.84.84 0 0 1 18 19.31c.109 0 .214.02.311.056l-.006-.002c.145.054.27.144.357.261s.134.253.134.393c0 .093-.02.186-.06.272a.72.72 0 0 1-.172.23l-.001.001a.813.813 0 0 1-.259.154.875.875 0 0 1-.305.054h-.001v-.003zm6.147-.39h-.587v.606h-.306v-1.484h.966v.248h-.661v.383h.587v.247zm1.47-.102c0 .146-.026.274-.077.384s-.126.195-.223.255a.61.61 0 0 1-.319.09h-.012.001a.593.593 0 0 1-.551-.338l-.002-.004a.855.855 0 0 1-.08-.366v-.014.001-.073c0-.146.026-.275.078-.385a.588.588 0 0 1 .553-.346c.124 0 .233.03.329.09.096.059.171.144.223.256s.079.239.079.384v.066zm-.31-.067c0-.155-.028-.274-.083-.355a.273.273 0 0 0-.227-.121h-.013.001-.012a.27.27 0 0 0-.225.12l-.001.001c-.056.08-.084.196-.085.351v.072c0 .151.028.269.083.352s.136.125.241.125h.012a.27.27 0 0 0 .224-.119l.001-.001c.055-.081.083-.198.083-.353v-.072zm1.301.386v-.009a.154.154 0 0 0-.061-.123.791.791 0 0 0-.22-.098 1.515 1.515 0 0 1-.26-.106l.009.004c-.169-.091-.253-.214-.253-.368 0-.08.023-.152.067-.214.046-.063.111-.112.195-.148s.18-.053.285-.053c.106 0 .2.019.283.058s.147.092.192.162c.046.07.07.15.07.238h-.306c0-.068-.021-.121-.064-.158a.263.263 0 0 0-.18-.057.277.277 0 0 0-.174.048.147.147 0 0 0-.062.121v.004c0 .048.024.089.072.121s.121.063.215.091c.174.052.301.117.38.195s.119.174.119.289c0 .128-.049.23-.146.303s-.227.109-.392.109a.756.756 0 0 1-.312-.063.5.5 0 0 1-.214-.17l-.001-.002a.438.438 0 0 1-.073-.243v-.01h.306c0 .163.098.246.294.246a.289.289 0 0 0 .17-.044.146.146 0 0 0 .061-.118v-.006zm1.632-.847h-.454v1.236h-.306v-1.236h-.448v-.248h1.208v.248zm1.067.593h-.587v.398h.689v.246h-.994v-1.484h.993v.248h-.687v.354h.587v.239zm.831.1h-.243v.543h-.306v-1.484h.551c.175 0 .311.039.406.117s.143.189.143.331a.46.46 0 0 1-.066.254.45.45 0 0 1-.196.16l-.003.001.321.606v.014h-.328l-.278-.543zm-.243-.247h.247c.077 0 .136-.019.178-.058a.21.21 0 0 0 .063-.151v-.012.001c0-.07-.02-.125-.06-.165s-.1-.06-.183-.06h-.246v.445zm1.852.268v.523h-.306v-1.484h.579c.111 0 .209.021.294.061s.15.099.196.174c.045.075.068.16.068.256 0 .145-.05.26-.15.344s-.237.126-.413.126h-.268zm0-.248h.273c.081 0 .143-.019.184-.057.043-.038.064-.093.064-.163v-.011a.245.245 0 0 0-.064-.166.238.238 0 0 0-.177-.069h-.28v.466zm1.934.127h-.587v.398h.689v.246h-.994v-1.484h.993v.248h-.687v.354h.587v.239zm1.419-.593h-.455v1.236h-.306v-1.236h-.448v-.248h1.209v.248zm1.068.593h-.587v.398h.689v.246h-.994v-1.484h.992v.248h-.687v.354h.587v.239zm.83.1h-.243v.543h-.306v-1.484h.551c.175 0 .31.039.406.117s.143.189.143.331a.46.46 0 0 1-.066.254.45.45 0 0 1-.196.16l-.003.001.321.606v.014h-.328l-.278-.543zm-.243-.247H37c.077 0 .136-.019.178-.058a.213.213 0 0 0 .063-.162c0-.07-.02-.125-.06-.165s-.1-.06-.182-.06h-.246v.445zm1.796.401v-.009a.158.158 0 0 0-.061-.124.791.791 0 0 0-.22-.098 1.515 1.515 0 0 1-.26-.106l.009.004c-.169-.091-.253-.214-.253-.368 0-.08.022-.152.067-.214.046-.063.111-.112.195-.148s.18-.053.285-.053c.106 0 .2.019.283.058s.147.092.192.162c.046.07.07.15.07.238h-.306a.2.2 0 0 0-.064-.158.263.263 0 0 0-.18-.057.277.277 0 0 0-.174.048.147.147 0 0 0-.062.12v.004c0 .048.024.089.072.121s.121.063.215.091c.174.052.301.117.38.195s.119.174.119.289c0 .128-.049.23-.146.303s-.228.109-.392.109a.756.756 0 0 1-.312-.063.508.508 0 0 1-.214-.17l-.001-.002a.44.44 0 0 1-.074-.244v-.01h.307c0 .163.098.246.294.246a.289.289 0 0 0 .17-.044.147.147 0 0 0 .061-.119v-.006z"/></symbol><symbol id="icon-client-5" viewBox="0 0 59 32"><path fill="#afb1b8" style="fill:var(--color1, #afb1b8)" d="M20.437 21.125c.085.096.13.216.128.34l.001.026a.485.485 0 0 1-.048.212l.001-.003a.555.555 0 0 1-.151.193l-.001.001a.907.907 0 0 1-.577.157h.003-1.01v-2.153h.989l.058-.002c.182 0 .351.054.493.147l-.003-.002c.064.049.115.111.148.181s.048.146.044.223a.471.471 0 0 1-.115.329.542.542 0 0 1-.301.168.586.586 0 0 1 .341.184zm-1.184-.325h.423a.43.43 0 0 0 .269-.072.26.26 0 0 0 .071-.094l.001-.002a.24.24 0 0 0 .02-.094l-.001-.021v.001l.001-.018a.245.245 0 0 0-.02-.098l.001.002a.284.284 0 0 0-.07-.096.433.433 0 0 0-.278-.073h.002-.416v.565zm.733.826a.27.27 0 0 0 .077-.097l.001-.002a.247.247 0 0 0 .023-.103l-.001-.018v.001-.016a.262.262 0 0 0-.024-.108l.001.002a.275.275 0 0 0-.079-.099h-.001a.464.464 0 0 0-.259-.079l-.03.001h.001-.443v.592h.449a.478.478 0 0 0 .284-.075zm2.473.425-.55-.842h-.207v.842h-.473v-2.153h.896l.064-.002c.211 0 .405.07.562.187l-.002-.002a.663.663 0 0 1 .215.479.644.644 0 0 1-.149.413l.001-.001a.746.746 0 0 1-.423.218h-.004l.586.861h-.515zm-.757-1.135h.387c.269 0 .403-.109.403-.326v-.017a.291.291 0 0 0-.023-.115l.001.002a.303.303 0 0 0-.077-.111.446.446 0 0 0-.267-.089l-.039.002h.002-.392l.005.655zm3.345.701h-.943l-.167.434h-.496l.866-2.129h.537l.863 2.129h-.496l-.163-.433zm-.126-.326-.345-.909-.345.909h.689zm3.365.76h-.47l-1.054-1.464v1.464h-.469v-2.154h.469l1.054 1.473v-1.473h.47v2.154zm2.682-.515a.982.982 0 0 1-.425.38 1.47 1.47 0 0 1-.623.136l-.04-.001h.002-.836v-2.153h.876c.225 0 .439.049.631.137l-.01-.004a.967.967 0 0 1 .425.376 1.164 1.164 0 0 1 0 1.13zm-.538-.052a.75.75 0 0 0 .208-.514.75.75 0 0 0-.208-.514.863.863 0 0 0-.591-.183h.003-.326v1.394h.326a.862.862 0 0 0 .59-.184l-.002.001zM25.341 7.919s6.066 2.097 5.937 5.131v5.132s-6.061-2.097-5.935-5.132l-.002-5.131zm11.341 9.061a8.793 8.793 0 0 1 3.854-1.3v-1.607c-1.594.563-2.946 1.583-3.854 2.907z"/><path fill="#afb1b8" style="fill:var(--color1, #afb1b8)" d="M35.994 17.464c.937-1.729 2.563-3.063 4.542-3.728V9.107s-8.638 2.987-8.456 7.307v7.306s.385-.134.991-.384c0-.233 0-.469.028-.706.178-2.006 1.22-3.864 2.895-5.168z"/><path fill="#afb1b8" style="fill:var(--color1, #afb1b8)" d="M35.172 20.178a6.919 6.919 0 0 1 .302-1.496c-1.043 1.125-1.675 2.522-1.806 3.993a5.81 5.81 0 0 0-.023.421 23.846 23.846 0 0 0 1.801-.87l-.139.068a6.936 6.936 0 0 1-.134-2.116zm.343.027a6.687 6.687 0 0 0 .115 1.959l-.008-.043c2.36-1.293 5.012-3.291 4.91-5.705v-.21c-1.686.173-3.264.848-4.49 1.921a6.563 6.563 0 0 0-.524 2.053l-.002.026z"/></symbol><symbol id="icon-client-6" viewBox="0 0 59 32"><path fill="#afb1b8" style="fill:var(--color1, #afb1b8)" d="M29.713 15.098a1.017 1.017 0 0 1-.211-.695v.003-1.003c0-.307.07-.541.209-.701s.379-.239.718-.239c.319 0 .546.068.68.204a.833.833 0 0 1 .201.6v.236h-.57v-.239a1.148 1.148 0 0 0-.017-.234.225.225 0 0 0-.081-.138.324.324 0 0 0-.183-.055l-.025.001h.001l-.024-.001a.347.347 0 0 0-.194.059l.001-.001a.268.268 0 0 0-.094.151v.002a1.169 1.169 0 0 0-.023.229v.02-.001 1.217a.624.624 0 0 0 .073.342c.03.037.068.065.112.082l.002.001a.3.3 0 0 0 .149.019h-.001l.024.001a.305.305 0 0 0 .179-.057l-.001.001a.246.246 0 0 0 .085-.146v-.001a1.33 1.33 0 0 0 .018-.244v-.247h.571v.225l.002.06a.912.912 0 0 1-.201.573l.001-.002c-.131.149-.355.223-.683.223s-.577-.08-.717-.245zm2.376.011c-.144-.157-.216-.384-.216-.685v-1.055c0-.298.072-.523.216-.677s.385-.229.723-.229c.336 0 .575.077.72.229.144.153.217.378.217.677v1.055c0 .298-.073.527-.22.684s-.385.235-.717.235-.578-.08-.723-.234zm.989-.253a.59.59 0 0 0 .069-.312v-1.292l.001-.035a.564.564 0 0 0-.07-.274l.002.003a.273.273 0 0 0-.115-.083l-.002-.001a.31.31 0 0 0-.152-.017h.002c-.012-.002-.025-.002-.039-.002a.34.34 0 0 0-.115.021l.002-.001a.284.284 0 0 0-.117.083v.001a.571.571 0 0 0-.069.306v1.298a.572.572 0 0 0 .069.312.385.385 0 0 0 .267.105c.053 0 .103-.01.149-.029l-.003.001a.364.364 0 0 0 .12-.077v-.006zm1.358-2.361h.614l.462 1.946.473-1.946h.598l.061 2.809h-.442l-.047-1.952-.456 1.952h-.354l-.473-1.959-.044 1.959h-.447l.056-2.809zm2.896 0h.957c.551 0 .827.266.827.798 0 .509-.29.764-.871.763h-.326v1.248h-.591l.003-2.809zm.818 1.201a.444.444 0 0 0 .325-.089.451.451 0 0 0 .085-.317l.001-.031a.912.912 0 0 0-.03-.23l.001.006a.19.19 0 0 0-.044-.077.25.25 0 0 0-.073-.056l-.001-.001a.605.605 0 0 0-.233-.046l-.032.001h.002-.229v.84h.229zm1.818-1.201h.635l.651 2.809h-.551l-.129-.648h-.566l-.133.648h-.559l.651-2.809zm.543 1.836-.221-1.179-.221 1.179h.442zm1.269-1.836h.414l.792 1.602v-1.602h.49v2.809h-.393l-.797-1.673v1.673h-.507l.001-2.809zm2.844 1.738-.658-1.734h.554l.402 1.114.377-1.114h.543l-.65 1.734v1.071h-.567v-1.071zm-13.999 2.3v.147h-.482v1.142h-.202V16.68h-.485v-.147h1.169zm1.512 1.288h-.16a.078.078 0 0 1-.04-.012.073.073 0 0 1-.026-.029l-.139-.306h-.669l-.139.306a.08.08 0 0 1-.022.035.068.068 0 0 1-.04.012h-.16l.591-1.288h.206l.598 1.283zm-.979-.478h.558l-.237-.525a.845.845 0 0 1-.042-.115l-.002-.007-.022.069-.022.054-.234.523zm1.997.352a.736.736 0 0 0 .29-.038c.026-.009.052-.021.079-.032v-.29h-.238a.046.046 0 0 1-.03-.011.028.028 0 0 1-.009-.01.021.021 0 0 1-.003-.012v-.1h.458v.494a.852.852 0 0 1-.243.103l-.006.001a1.069 1.069 0 0 1-.148.027 1.656 1.656 0 0 1-.173.008h-.008a.912.912 0 0 1-.297-.05l.006.002a.726.726 0 0 1-.237-.135l.001.001a.63.63 0 0 1-.151-.2l-.002-.004a.638.638 0 0 1-.054-.259v-.017c0-.094.02-.184.055-.266l-.002.004a.59.59 0 0 1 .152-.204.726.726 0 0 1 .237-.134 1.12 1.12 0 0 1 .481-.037.85.85 0 0 1 .259.084.79.79 0 0 1 .103.067l-.057.08a.052.052 0 0 1-.019.017.06.06 0 0 1-.027.007.079.079 0 0 1-.037-.01.566.566 0 0 1-.061-.032l.003.002a.582.582 0 0 0-.075-.034l-.004-.001a.68.68 0 0 0-.104-.028l-.005-.001a.9.9 0 0 0-.142-.011h-.015a.704.704 0 0 0-.226.037l.005-.001a.497.497 0 0 0-.174.102.437.437 0 0 0-.108.157l-.001.003a.596.596 0 0 0 .001.434l-.001-.004a.503.503 0 0 0 .29.264.658.658 0 0 0 .234.025zm1.884-.021h.645v.147h-.842v-1.288h.202l-.005 1.142zm1.316.147h-.202v-1.288h.202v1.288zm.751-1.282a.12.12 0 0 1 .031.023l.864.971L38 17.51l.001-.024v.001-.96h.176v1.294h-.109a.1.1 0 0 1-.038-.008h.001a.128.128 0 0 1-.032-.024l-.863-.97v1.002h-.169v-1.288h.105c.011 0 .023.002.033.006zm2.559-.006v.142h-.716v.425h.58v.137h-.58v.44h.716v.142h-.924v-1.285h.924zM18.491 8.576l8.972 2.2v7.707l-8.972-2.198V8.576zm-.576-.657v8.739l10.122 2.482v-8.739L17.915 7.918z"/><path fill="#afb1b8" style="fill:var(--color1, #afb1b8)" d="m23.341 23.197-10.123-2.484v-8.739l10.123 2.483v8.739z"/><path fill="#afb1b8" style="fill:var(--color1, #afb1b8)" d="m18.083 8.477 8.855 2.172-3.766 3.252-8.857-2.173 3.767-3.251zm-.168-.558-4.698 4.056 10.123 2.483 4.697-4.056-10.122-2.483zm5.995 14.787 4.128-3.564-4.128-1.013v4.577z"/></symbol><symbol id="icon-facebook" viewBox="0 0 32 32"><path fill="#fff" style="fill:var(--color2, #fff)" d="M32 16v.02a15.9 15.9 0 0 1-4.686 11.293A15.902 15.902 0 0 1 16.021 32H16h.001-.02a15.9 15.9 0 0 1-11.293-4.686A15.902 15.902 0 0 1 .001 16.021V16v.001-.02A15.9 15.9 0 0 1 4.687 4.688 15.902 15.902 0 0 1 15.98.001h.021H16h.02a15.9 15.9 0 0 1 11.293 4.686A15.902 15.902 0 0 1 32 15.98v.021V16z"/><path fill="#afb1b8" style="fill:var(--color1, #afb1b8)" d="M18.422 11.142h1.329V8.829c-.56-.065-1.21-.102-1.867-.102h-.071.004c-1.915 0-3.226 1.204-3.226 3.418v2.036h-2.113v2.585h2.113v6.505h2.591v-6.505h2.027l.322-2.585h-2.35v-1.782c0-.747.201-1.258 1.243-1.258z"/></symbol><symbol id="icon-feature-1" viewBox="0 0 72 32"><path fill="#f5f4fa" style="fill:var(--color3, #f5f4fa)" d="M1.067 0h69.867c.589 0 1.067.478 1.067 1.067v29.867c0 .589-.478 1.067-1.067 1.067H1.067A1.067 1.067 0 0 1 0 30.934V1.067C0 .478.478 0 1.067 0z"/><path fill="#212121" style="fill:var(--color4, #212121)" d="m44.618 19.557-4.925-4.961.547-2.693c.131.053.283.084.442.085h.019a1.259 1.259 0 1 0-1.183-.828l-.003-.009-2.893.353-4.719-4.744a.308.308 0 0 0-.22-.093.312.312 0 0 0-.218.091l-.882.877a.31.31 0 0 0 0 .44l.475.481a8.716 8.716 0 0 0 1.47 10.303.302.302 0 0 0 .085.057 1.67 1.67 0 0 0-.03.319v3.61H28.85a1.558 1.558 0 0 0-1.556 1.555v.622a.31.31 0 0 0 .311.311h14.311a.31.31 0 0 0 .311-.311V24.4a1.557 1.557 0 0 0-1.555-1.555h-3.733v-1.599a8.632 8.632 0 0 0 5.93-.876l-.045.023.477.48a.309.309 0 0 0 .438.002l.882-.877a.31.31 0 0 0 0-.44zm-4.371-9.254a.62.62 0 0 1 1.06.442.621.621 0 0 1-.621.622h-.002a.623.623 0 0 1-.436-1.063h-.001zm-.733 2.044-.349 1.718-.686-.69 1.035-1.029zm-.353-.526-1.12 1.114-.866-.871 1.986-.242zm1.508 11.646c.515 0 .933.418.933.933v.311H27.913V24.4c0-.515.418-.933.933-.933h11.822zm-4.355-1.245v.622h-3.111v-.622h3.111zm-3.112-.622v-2.365c0-.755.698-1.369 1.555-1.369s1.556.614 1.556 1.369V21.6h-3.111zm3.734-.989v-1.375c0-1.098-.977-1.991-2.178-1.991h-.034c-.789 0-1.482.412-1.875 1.033l-.005.009a8.062 8.062 0 0 1-2.223-5.57c0-1.35.331-2.623.915-3.742l-.021.045 10.851 10.913a7.955 7.955 0 0 1-3.655.876 8.1 8.1 0 0 1-1.829-.208l.054.011zm6.585-.399L31.238 7.857l.44-.439 4.629 4.655c.002 0 .003.004.006.006l7.65 7.695-.441.439z"/><path fill="#2196f3" style="fill:var(--color5, #2196f3)" d="M34.761 18.489h-.004a.933.933 0 0 0-.001 1.866h.004a.933.933 0 0 0 .001-1.866zm.217 1.154a.31.31 0 1 1-.438-.442.312.312 0 0 1 .218-.091.312.312 0 0 1 .218.532h.003z"/></symbol><symbol id="icon-feature-2" viewBox="0 0 72 32"><path fill="#f5f4fa" style="fill:var(--color3, #f5f4fa)" d="M1.067 0h69.867c.589 0 1.067.478 1.067 1.067v29.867c0 .589-.478 1.067-1.067 1.067H1.067A1.067 1.067 0 0 1 0 30.934V1.067C0 .478.478 0 1.067 0z"/><path fill="#212121" style="fill:var(--color4, #212121)" d="M44.923 15.592c-.001-4.931-3.999-8.927-8.93-8.926s-8.927 3.999-8.926 8.93a8.932 8.932 0 0 0 6.149 8.485l.063.018a.394.394 0 0 0 .309-.038.37.37 0 0 0 .165-.208l2.255-7.146a1.115 1.115 0 0 0 1.11-1.115v-.006a1.115 1.115 0 0 0-1.116-1.11h-.006a1.096 1.096 0 0 0-.485.115l.006-.003-2.978-2.979a.373.373 0 0 0-.63.268c0 .1.04.191.104.258l2.977 2.98a1.094 1.094 0 0 0 .31 1.345l.002.002-2.148 6.809a8.192 8.192 0 1 1 10.519-4.856 8.243 8.243 0 0 1-4.301 4.631l-.051.021-.232-1.093a.373.373 0 0 0-.612-.2l-2.238 1.998a.37.37 0 0 0 .132.632l.003.001 2.858.912a.373.373 0 0 0 .486-.354.344.344 0 0 0-.009-.08v.002l-.228-1.073c3.224-1.385 5.442-4.533 5.442-8.2v-.02.001zm-8.928-.371a.373.373 0 0 1 0 .744.373.373 0 0 1 0-.744zm1.226 8.67 1.274-1.137.352 1.657-1.626-.52z"/><path fill="#2196f3" style="fill:var(--color5, #2196f3)" d="M35.623 8.525v.744a.373.373 0 0 0 .744 0v-.744a.373.373 0 0 0-.744 0zm-6.695 6.696a.373.373 0 0 0 0 .744h.744a.373.373 0 0 0 0-.744h-.744zm14.135.744a.373.373 0 0 0 0-.744h-.744a.373.373 0 0 0 0 .744h.744z"/></symbol><symbol id="icon-feature-3" viewBox="0 0 72 32"><path fill="#f5f4fa" style="fill:var(--color3, #f5f4fa)" d="M1.067 0h69.867c.589 0 1.067.478 1.067 1.067v29.867c0 .589-.478 1.067-1.067 1.067H1.067A1.067 1.067 0 0 1 0 30.934V1.067C0 .478.478 0 1.067 0z"/><path fill="#2196f3" style="fill:var(--color5, #2196f3)" d="M35.373 15.396h.622v2.799h-.622v-2.799zm2.488 1.244h.622v1.555h-.622V16.64zm-4.975.933h.622v.622h-.622v-.622zm-1.866-.311h.622v.933h-.622v-.933z"/><path fill="#212121" style="fill:var(--color4, #212121)" d="M27.599 23.17h14.926a.933.933 0 0 0 .933-.933v-1.244a.933.933 0 0 0-.933-.933h-.311v-7.755l1.766-1.673a.938.938 0 1 0-.433-.439l-.002-.006-1.331 1.262v-.717a.933.933 0 0 0-.933-.933H28.843a.933.933 0 0 0-.933.933v9.329h-.311a.933.933 0 0 0-.933.933v1.244c0 .515.418.933.933.933zM44.391 9.488a.31.31 0 1 1 0 .622.31.31 0 1 1 0-.622zm-15.859 1.244a.31.31 0 0 1 .311-.311h12.438a.31.31 0 0 1 .311.311v1.306l-.622.591v-1.275a.31.31 0 0 0-.311-.311H29.465a.31.31 0 0 0-.311.311v7.774a.31.31 0 0 0 .311.311h11.194a.311.311 0 0 0 .311-.311v-5.643l.622-.589v7.165h-13.06v-9.328zm2.799 4.042h-.003a.933.933 0 1 0 .649 1.603l1.081.542a.31.31 0 0 0 .371-.071l2.298-2.585 2.259 1.693a.31.31 0 0 0 .4-.023l1.963-1.859v4.743H29.777v-7.152h10.572v1.552l-2.2 2.083-2.278-1.707a.31.31 0 0 0-.419.042l-2.329 2.621-.871-.435a.899.899 0 0 0 .012-.111v-.002a.933.933 0 0 0-.933-.933zm.311.933a.31.31 0 1 1-.622 0 .31.31 0 1 1 .622 0zm1.865 4.975h3.11v.311a.31.31 0 0 1-.311.311h-2.488a.31.31 0 0 1-.311-.311v-.311zm-6.218.311a.31.31 0 0 1 .311-.311h5.286v.311c0 .515.418.933.933.933h2.488a.933.933 0 0 0 .933-.933v-.311h5.286a.31.31 0 0 1 .311.311v1.244a.31.31 0 0 1-.311.311H27.6a.31.31 0 0 1-.311-.311v-1.244z"/></symbol><symbol id="icon-feature-4" viewBox="0 0 72 32"><path fill="#f5f4fa" style="fill:var(--color3, #f5f4fa)" d="M1.067 0h69.867c.589 0 1.067.478 1.067 1.067v29.867c0 .589-.478 1.067-1.067 1.067H1.067A1.067 1.067 0 0 1 0 30.934V1.067C0 .478.478 0 1.067 0z"/><path fill="#2196f3" style="fill:var(--color5, #2196f3)" d="M45.318 9.306a.312.312 0 0 0-.249-.211h-.002l-1.114-.162-.499-1.01c-.105-.213-.453-.213-.558 0l-.499 1.01-1.115.162a.31.31 0 0 0-.173.531l.807.786-.19 1.11a.311.311 0 0 0 .451.328l.997-.525.997.524a.314.314 0 0 0 .329-.024l-.001.001a.307.307 0 0 0 .123-.304l-.19-1.11.807-.786a.312.312 0 0 0 .078-.321l.001.002zm-1.436.774a.309.309 0 0 0-.089.278v-.002l.111.65-.583-.307a.305.305 0 0 0-.292.001l.002-.001-.583.307.111-.65a.308.308 0 0 0-.089-.275l-.473-.461.653-.095a.31.31 0 0 0 .234-.17l.292-.591.292.591a.31.31 0 0 0 .234.17l.653.095-.472.461zm-1.971 8.558h-.622v.622h.622v-.622zm0 1.245h-.622v.622h.622v-.622zm.622-.623h-.622v.622h.622v-.622zm-1.244 0h-.622v.622h.622v-.622zm-1.556 2.8h-.622v.622h.622v-.622zm0 1.245h-.622v.622h.622v-.622zm.623-.622h-.622v.622h.622v-.622zm-1.245 0h-.622v.622h.622v-.622zM36 20.816h-.622v.622H36v-.622zm0 1.244h-.622v.622H36v-.622zm.622-.622H36v.622h.622v-.622zm-1.244 0h-.622v.622h.622v-.622zm-5.289-11.2h-.622v.622h.622v-.622zm0 1.244h-.622v.622h.622v-.622zm.622-.622h-.622v.622h.622v-.622zm-1.244 0h-.622v.622h.622v-.622z"/><path fill="#212121" style="fill:var(--color4, #212121)" d="M41.084 14.926a1.033 1.033 0 0 0-.688-.41l-.005-.001a1.03 1.03 0 0 0-.784.207l.002-.002-.73.56-1.107.827-.792-.316a4.046 4.046 0 0 0 2.4-3.687c0-2.23-1.822-4.045-4.061-4.045s-4.061 1.814-4.061 4.045c0 .808.242 1.56.653 2.193l-1.615-.014c-.005 0-.009.003-.014.003a.314.314 0 0 0-.093.019l.002-.001c-.007.003-.015.004-.022.008a.049.049 0 0 0-.011.004l-1.886.931-.001.001-1.104.531a.232.232 0 0 0-.038.021l.001-.001a1.04 1.04 0 0 0-.347 1.345l-.003-.006c.128.247.346.433.609.516l.007.002a1.035 1.035 0 0 0 .809-.078l-.005.003.81-.43 1.321-.682.791-.005-3.956 3.937a.96.96 0 0 0-.286.685v.004a.97.97 0 0 0 .972.969h.002c.25 0 .498-.094.689-.283l.767-.763 1.015-.758.525.523-1.809 1.802a.958.958 0 0 0-.286.685v.003a.973.973 0 0 0 .973.971h.001a.974.974 0 0 0 .689-.283l2.618-2.609c.004-.004.009-.005.013-.009l3.013-3.301 2.025.288a.312.312 0 0 0 .153-.019l.029-.014c.011-.006.023-.009.034-.016l1.874-1.244c.007-.005.011-.012.017-.017.007-.006.017-.008.024-.015l.742-.695a1.034 1.034 0 0 0 .122-1.38l.002.003zm-13.175 2.107a.404.404 0 0 1-.329.029l.003.001a.418.418 0 0 1-.125-.734l.001-.001.766-.369.185.539.077.227-.579.307zm2.04-1.067-.903.467-.149-.435-.107-.313 1.182-.584-.023.866zm8.808-3.861c0 .536-.128 1.041-.349 1.493l-2.439-1.108a1.086 1.086 0 0 0-.456-.807l-.003-.002.854-2.835a3.429 3.429 0 0 1 2.394 3.26zm-6.876 0a3.434 3.434 0 0 1 3.438-3.422c.147 0 .292.013.435.031l-.835 2.773-.033-.003c-.602 0-1.093.488-1.093 1.089s.49 1.089 1.093 1.089c.405 0 .755-.223.944-.551l2.253 1.024a3.439 3.439 0 0 1-6.201-2.028zm3.474.466a.47.47 0 0 1-.47.467h-.001a.47.47 0 0 1-.469-.467.47.47 0 0 1 .94 0zm-7.25 8.764a.355.355 0 0 1-.498.001.344.344 0 0 1 0-.492l.561-.559.497.494-.559.557zm1.874 2.178a.355.355 0 0 1-.498.001.344.344 0 0 1 0-.492l.562-.559.497.494-.56.557zm2.031-2.023-.001.001-1.03 1.027-.497-.494 1.03-1.025a.292.292 0 0 0 .052-.079c.004-.008.012-.015.015-.023.01-.024.011-.05.015-.075.002-.014.008-.028.008-.043 0-.021-.007-.041-.012-.061-.004-.019-.004-.038-.011-.056a.324.324 0 0 0-.053-.081c-.006-.007-.008-.015-.015-.022h-.001l-.001-.001-.937-.933c-.01-.01-.023-.014-.034-.023a.35.35 0 0 0-.049-.033l-.002-.001a.253.253 0 0 0-.053-.018h-.002a.257.257 0 0 0-.059-.012H30.359a.325.325 0 0 0-.044.003h.002c-.021.003-.041.005-.061.012s-.037.016-.055.026c-.012.006-.025.009-.035.017l-1.035.772-.525-.523 1.399-1.392 2.543 2.502-.541.536zm3.978-4.093c-.009-.001-.017.002-.026.002h-.016a.305.305 0 0 0-.105.018l.002-.001a.275.275 0 0 0-.057.028l.001-.001a.343.343 0 0 0-.049.036c-.007.006-.017.01-.023.017l-2.741 3.002-2.525-2.483 1.653-1.644a.31.31 0 0 0-.22-.531h-.002l-1.294.007.016-.938 1.811.015a4.044 4.044 0 0 0 2.904 1.226h.002c.255 0 .504-.027.746-.071a.294.294 0 0 0 .075.049l1.406.56.089.442.104.517-1.752-.249zm2.357.104-.182-.909.844-.63.221.293.331.44-1.214.806zm2.19-1.652-.489.458-.543-.721.485-.372a.425.425 0 0 1 .597.083.415.415 0 0 1-.05.552z"/><path fill="#212121" style="fill:var(--color4, #212121)" d="m34.601 17.484-1.25-1.245a.31.31 0 0 0-.438 0l-1.25 1.245a.315.315 0 0 0 0 .442l1.25 1.245a.31.31 0 0 0 .438 0l1.25-1.245a.31.31 0 0 0 0-.442zm-1.469 1.026-.809-.805.809-.806.809.805-.809.805zm3.547-8.885-.15.604c.041.01 1.014.263 1.014 1.253h.622c0-1.177-.972-1.73-1.486-1.858zm1.486 2.48h-.622v.622h.622v-.622z"/></symbol><symbol id="icon-instagram" viewBox="0 0 32 32"><path fill="#fff" style="fill:var(--color2, #fff)" d="M32 16v.02a15.9 15.9 0 0 1-4.686 11.293A15.902 15.902 0 0 1 16.021 32H16h.001-.02a15.9 15.9 0 0 1-11.293-4.686A15.902 15.902 0 0 1 .001 16.021V16v.001-.02A15.9 15.9 0 0 1 4.687 4.688 15.902 15.902 0 0 1 15.98.001h.021H16h.02a15.9 15.9 0 0 1 11.293 4.686A15.902 15.902 0 0 1 32 15.98v.021V16z"/><path fill="#afb1b8" style="fill:var(--color1, #afb1b8)" d="M23.258 13.004c-.033-.773-.159-1.304-.337-1.764a3.57 3.57 0 0 0-.841-1.29l-.001-.001a3.583 3.583 0 0 0-1.263-.83l-.024-.008c-.463-.179-.991-.304-1.764-.337-.778-.037-1.025-.046-3.001-.046s-2.222.009-2.998.043c-.773.033-1.304.159-1.764.338a3.58 3.58 0 0 0-1.29.84l-.001.001c-.36.354-.645.784-.83 1.263l-.008.024c-.18.463-.304.991-.338 1.764-.037.778-.046 1.025-.046 3.001s.009 2.222.043 2.998c.034.773.159 1.304.338 1.764.194.505.48.935.84 1.29h.001c.364.369.804.656 1.287.838.463.18.992.305 1.764.338.776.034 1.023.043 2.998.043s2.222-.009 2.998-.043c.773-.033 1.304-.159 1.764-.337a3.741 3.741 0 0 0 2.12-2.104l.009-.025c.179-.463.304-.992.338-1.764.034-.776.042-1.023.042-2.998s-.003-2.222-.036-2.998zm-1.309 5.939c-.032.711-.151 1.094-.25 1.349a2.428 2.428 0 0 1-1.365 1.376l-.016.006c-.255.099-.641.218-1.349.249-.767.034-.997.043-2.938.043s-2.174-.009-2.938-.043c-.711-.031-1.094-.151-1.35-.25a2.237 2.237 0 0 1-.834-.542l-.001-.001a2.268 2.268 0 0 1-.538-.819l-.005-.016c-.099-.256-.218-.642-.249-1.35-.034-.767-.043-.998-.043-2.938s.009-2.175.043-2.938c.031-.711.151-1.094.249-1.35.122-.328.308-.608.545-.835l.001-.001c.229-.235.509-.42.821-.537l.016-.005c.255-.099.641-.218 1.349-.25.767-.033.998-.042 2.938-.042 1.943 0 2.174.008 2.938.042.711.031 1.094.151 1.35.25.315.116.602.301.835.543.241.236.426.52.543.836.099.255.218.641.249 1.349.034.767.043.997.043 2.938s-.009 2.167-.043 2.935z"/><path fill="#afb1b8" style="fill:var(--color1, #afb1b8)" d="M16.027 12.265h-.001a3.737 3.737 0 1 0 3.737 3.737v-.001a3.737 3.737 0 0 0-3.737-3.737zm0 6.16a2.424 2.424 0 1 1 0-4.848 2.424 2.424 0 1 1 0 4.848zm4.757-6.308a.873.873 0 0 1-1.746 0 .873.873 0 0 1 1.746 0z"/></symbol><symbol id="icon-linkedin" viewBox="0 0 32 32"><path fill="#fff" style="fill:var(--color2, #fff)" d="M32 16v.02a15.9 15.9 0 0 1-4.686 11.293A15.902 15.902 0 0 1 16.021 32H16h.001-.02a15.9 15.9 0 0 1-11.293-4.686A15.902 15.902 0 0 1 .001 16.021V16v.001-.02A15.9 15.9 0 0 1 4.687 4.688 15.902 15.902 0 0 1 15.98.001h.021H16h.02a15.9 15.9 0 0 1 11.293 4.686A15.902 15.902 0 0 1 32 15.98v.021V16z"/><path fill="#afb1b8" style="fill:var(--color1, #afb1b8)" d="M23.269 23.273h.004v-5.335c0-2.609-.561-4.62-3.612-4.62-1.467 0-2.451.804-2.853 1.567h-.042v-1.324h-2.893v9.711h3.012v-4.808c0-1.266.24-2.491 1.808-2.491 1.545 0 1.568 1.445 1.568 2.572v4.728h3.009zM8.967 13.562h3.016v9.711H8.967v-9.711zm1.507-4.835c-.965 0-1.747.782-1.747 1.747 0 .964.783 1.763 1.747 1.763s1.746-.799 1.746-1.763c0-.964-.782-1.746-1.746-1.747z"/></symbol><symbol id="icon-mail" viewBox="0 0 43 32"><path fill="#757575" style="fill:var(--color6, #757575)" d="M38.667 0H4C1.795 0 0 1.795 0 4v24c0 2.205 1.795 4 4 4h34.667c2.205 0 4-1.795 4-4V4c0-2.205-1.795-4-4-4zm0 2.667c.181 0 .355.037.512.104L21.334 18.238 3.489 2.771c.151-.065.327-.104.512-.104h34.667zm0 26.666H4A1.333 1.333 0 0 1 2.667 28V5.587l17.792 15.421c.233.203.539.327.875.327s.642-.124.876-.328l-.002.001L40 5.587V28c0 .736-.597 1.333-1.333 1.333z"/></symbol><symbol id="icon-smartphone" viewBox="0 0 20 32"><path fill="#757575" style="fill:var(--color6, #757575)" d="M17 0H3C1.346 0 0 1.346 0 3v26c0 1.654 1.346 3 3 3h14c1.654 0 3-1.346 3-3V3c0-1.654-1.346-3-3-3zM3 2h14a1 1 0 0 1 1 1v21H2V3a1 1 0 0 1 1-1zm14 28H3a1 1 0 0 1-1-1v-3h16v3a1 1 0 0 1-1 1z"/><path fill="#757575" style="fill:var(--color6, #757575)" d="M4.708 27.478a.889.889 0 0 1 .001 1.319l-.001.001a1.048 1.048 0 0 1-1.417 0l.001.001a.889.889 0 0 1-.001-1.319l.001-.001a1.048 1.048 0 0 1 1.417 0l-.001-.001z"/></symbol><symbol id="icon-twitter" viewBox="0 0 32 32"><path fill="#fff" style="fill:var(--color2, #fff)" d="M32 16v.02a15.9 15.9 0 0 1-4.686 11.293A15.902 15.902 0 0 1 16.021 32H16h.001-.02a15.9 15.9 0 0 1-11.293-4.686A15.902 15.902 0 0 1 .001 16.021V16v.001-.02A15.9 15.9 0 0 1 4.687 4.688 15.902 15.902 0 0 1 15.98.001h.021H16h.02a15.9 15.9 0 0 1 11.293 4.686A15.902 15.902 0 0 1 32 15.98v.021V16z"/><path fill="#afb1b8" style="fill:var(--color1, #afb1b8)" d="M23.273 11.49c-.5.224-1.08.39-1.688.467l-.031.003a2.98 2.98 0 0 0 1.306-1.627l.006-.021a5.851 5.851 0 0 1-1.853.715l-.038.006a2.981 2.981 0 0 0-5.158 2.036v.003c0 .236.02.464.07.68a8.443 8.443 0 0 1-6.147-3.119 2.984 2.984 0 0 0 .917 3.986 2.937 2.937 0 0 1-1.362-.375l.015.008v.033a2.995 2.995 0 0 0 2.37 2.927l.02.003a2.906 2.906 0 0 1-.756.098h-.028.001-.047c-.183 0-.362-.019-.534-.054l.017.003a3.012 3.012 0 0 0 2.786 2.078 5.948 5.948 0 0 1-3.69 1.271h-.047c-.238 0-.472-.015-.701-.044l.027.003a8.317 8.317 0 0 0 4.547 1.338h.029-.002c5.487 0 8.487-4.545 8.487-8.486 0-.131-.004-.259-.011-.385a5.978 5.978 0 0 0 1.481-1.526l.014-.021z"/></symbol></defs></svg>